<?xml version="1.0" encoding="UTF-8" standalone="no"?>
<!DOCTYPE svg PUBLIC "-//W3C//DTD SVG 1.1//EN"
 "http://www.w3.org/Graphics/SVG/1.1/DTD/svg11.dtd">
<!-- Generated by graphviz version 2.38.0 (20140413.2041)
 -->
<!-- Title: company data flow Pages: 1 -->
<svg width="343pt" height="502pt"
 viewBox="0.00 0.00 343.17 501.71" xmlns="http://www.w3.org/2000/svg" xmlns:xlink="http://www.w3.org/1999/xlink">
<g id="graph0" class="graph" transform="scale(1 1) rotate(0) translate(4 497.706)">
<title>company data flow</title>
<polygon fill="white" stroke="none" points="-4,4 -4,-497.706 339.169,-497.706 339.169,4 -4,4"/>
<!-- process/
init/app -->
<g id="node1" class="node"><title>process/
init/app</title>
<ellipse fill="none" stroke="#cc2222" cx="167.584" cy="-21.2132" rx="41.9398" ry="21.4286"/>
<text text-anchor="middle" x="167.584" y="-24.2132" font-family="Ubuntu Mono,Envy Code R,Oxygen Mono,Consolas,Menlo,Monaco,Andale Mono" font-size="10.00">process/</text>
<text text-anchor="middle" x="167.584" y="-13.2132" font-family="Ubuntu Mono,Envy Code R,Oxygen Mono,Consolas,Menlo,Monaco,Andale Mono" font-size="10.00">init/app</text>
</g>
<!-- process/
init/relation/articles -->
<g id="node2" class="node"><title>process/
init/relation/articles</title>
<ellipse fill="none" stroke="#cc2222" cx="167.584" cy="-99.6396" rx="93.1765" ry="21.4286"/>
<text text-anchor="middle" x="167.584" y="-102.64" font-family="Ubuntu Mono,Envy Code R,Oxygen Mono,Consolas,Menlo,Monaco,Andale Mono" font-size="10.00">process/</text>
<text text-anchor="middle" x="167.584" y="-91.6396" font-family="Ubuntu Mono,Envy Code R,Oxygen Mono,Consolas,Menlo,Monaco,Andale Mono" font-size="10.00">init/relation/articles</text>
</g>
<!-- process/
init/app&#45;&gt;process/
init/relation/articles -->
<g id="edge1" class="edge"><title>process/
init/app&#45;&gt;process/
init/relation/articles</title>
<path fill="none" stroke="#999999" d="M167.584,-42.6941C167.584,-50.5527 167.584,-59.697 167.584,-68.2873"/>
<polygon fill="#999999" stroke="#999999" points="164.084,-68.3672 167.584,-78.3672 171.084,-68.3672 164.084,-68.3672"/>
</g>
<!-- data/
articles -->
<g id="node6" class="node"><title>data/
articles</title>
<polygon fill="none" stroke="#2222cc" points="197.084,-192.853 142.084,-192.853 138.084,-188.853 138.084,-156.853 193.084,-156.853 197.084,-160.853 197.084,-192.853"/>
<polyline fill="none" stroke="#2222cc" points="193.084,-188.853 138.084,-188.853 "/>
<polyline fill="none" stroke="#2222cc" points="193.084,-188.853 193.084,-156.853 "/>
<polyline fill="none" stroke="#2222cc" points="193.084,-188.853 197.084,-192.853 "/>
<text text-anchor="middle" x="167.584" y="-177.853" font-family="Ubuntu Mono,Envy Code R,Oxygen Mono,Consolas,Menlo,Monaco,Andale Mono" font-size="10.00">data/</text>
<text text-anchor="middle" x="167.584" y="-166.853" font-family="Ubuntu Mono,Envy Code R,Oxygen Mono,Consolas,Menlo,Monaco,Andale Mono" font-size="10.00">articles</text>
</g>
<!-- process/
init/relation/articles&#45;&gt;data/
articles -->
<g id="edge4" class="edge"><title>process/
init/relation/articles&#45;&gt;data/
articles</title>
<path fill="none" stroke="#999999" d="M167.584,-121.034C167.584,-128.888 167.584,-137.989 167.584,-146.402"/>
<polygon fill="#999999" stroke="#999999" points="164.084,-146.543 167.584,-156.543 171.084,-146.543 164.084,-146.543"/>
</g>
<!-- process/
ext_company_mention_by_map_company_mention -->
<g id="node3" class="node"><title>process/
ext_company_mention_by_map_company_mention</title>
<ellipse fill="none" stroke="#cc2222" cx="167.584" cy="-400.492" rx="167.669" ry="21.4286"/>
<text text-anchor="middle" x="167.584" y="-403.492" font-family="Ubuntu Mono,Envy Code R,Oxygen Mono,Consolas,Menlo,Monaco,Andale Mono" font-size="10.00">process/</text>
<text text-anchor="middle" x="167.584" y="-392.492" font-family="Ubuntu Mono,Envy Code R,Oxygen Mono,Consolas,Menlo,Monaco,Andale Mono" font-size="10.00">ext_company_mention_by_map_company_mention</text>
</g>
<!-- data/
company_mention -->
<g id="node7" class="node"><title>data/
company_mention</title>
<polygon fill="none" stroke="#2222cc" points="215.084,-493.706 124.084,-493.706 120.084,-489.706 120.084,-457.706 211.084,-457.706 215.084,-461.706 215.084,-493.706"/>
<polyline fill="none" stroke="#2222cc" points="211.084,-489.706 120.084,-489.706 "/>
<polyline fill="none" stroke="#2222cc" points="211.084,-489.706 211.084,-457.706 "/>
<polyline fill="none" stroke="#2222cc" points="211.084,-489.706 215.084,-493.706 "/>
<text text-anchor="middle" x="167.584" y="-478.706" font-family="Ubuntu Mono,Envy Code R,Oxygen Mono,Consolas,Menlo,Monaco,Andale Mono" font-size="10.00">data/</text>
<text text-anchor="middle" x="167.584" y="-467.706" font-family="Ubuntu Mono,Envy Code R,Oxygen Mono,Consolas,Menlo,Monaco,Andale Mono" font-size="10.00">company_mention</text>
</g>
<!-- process/
ext_company_mention_by_map_company_mention&#45;&gt;data/
company_mention -->
<g id="edge5" class="edge"><title>process/
ext_company_mention_by_map_company_mention&#45;&gt;data/
company_mention</title>
<path fill="none" stroke="#999999" d="M167.584,-421.886C167.584,-429.74 167.584,-438.842 167.584,-447.254"/>
<polygon fill="#999999" stroke="#999999" points="164.084,-447.396 167.584,-457.396 171.084,-447.396 164.084,-447.396"/>
</g>
<!-- data/
sentences -->
<g id="node4" class="node"><title>data/
sentences</title>
<polygon fill="none" stroke="#2222cc" points="199.584,-343.279 139.584,-343.279 135.584,-339.279 135.584,-307.279 195.584,-307.279 199.584,-311.279 199.584,-343.279"/>
<polyline fill="none" stroke="#2222cc" points="195.584,-339.279 135.584,-339.279 "/>
<polyline fill="none" stroke="#2222cc" points="195.584,-339.279 195.584,-307.279 "/>
<polyline fill="none" stroke="#2222cc" points="195.584,-339.279 199.584,-343.279 "/>
<text text-anchor="middle" x="167.584" y="-328.279" font-family="Ubuntu Mono,Envy Code R,Oxygen Mono,Consolas,Menlo,Monaco,Andale Mono" font-size="10.00">data/</text>
<text text-anchor="middle" x="167.584" y="-317.279" font-family="Ubuntu Mono,Envy Code R,Oxygen Mono,Consolas,Menlo,Monaco,Andale Mono" font-size="10.00">sentences</text>
</g>
<!-- data/
sentences&#45;&gt;process/
ext_company_mention_by_map_company_mention -->
<g id="edge2" class="edge"><title>data/
sentences&#45;&gt;process/
ext_company_mention_by_map_company_mention</title>
<path fill="none" stroke="#999999" d="M167.584,-343.63C167.584,-351.205 167.584,-360.319 167.584,-368.967"/>
<polygon fill="#999999" stroke="#999999" points="164.084,-369.15 167.584,-379.15 171.084,-369.15 164.084,-369.15"/>
</g>
<!-- process/
ext_sentences_by_nlp_markup -->
<g id="node5" class="node"><title>process/
ext_sentences_by_nlp_markup</title>
<ellipse fill="none" stroke="#cc2222" cx="167.584" cy="-250.066" rx="111.946" ry="21.4286"/>
<text text-anchor="middle" x="167.584" y="-253.066" font-family="Ubuntu Mono,Envy Code R,Oxygen Mono,Consolas,Menlo,Monaco,Andale Mono" font-size="10.00">process/</text>
<text text-anchor="middle" x="167.584" y="-242.066" font-family="Ubuntu Mono,Envy Code R,Oxygen Mono,Consolas,Menlo,Monaco,Andale Mono" font-size="10.00">ext_sentences_by_nlp_markup</text>
</g>
<!-- process/
ext_sentences_by_nlp_markup&#45;&gt;data/
sentences -->
<g id="edge6" class="edge"><title>process/
ext_sentences_by_nlp_markup&#45;&gt;data/
sentences</title>
<path fill="none" stroke="#999999" d="M167.584,-271.46C167.584,-279.314 167.584,-288.416 167.584,-296.828"/>
<polygon fill="#999999" stroke="#999999" points="164.084,-296.969 167.584,-306.969 171.084,-296.969 164.084,-296.969"/>
</g>
<!-- data/
articles&#45;&gt;process/
ext_sentences_by_nlp_markup -->
<g id="edge3" class="edge"><title>data/
articles&#45;&gt;process/
ext_sentences_by_nlp_markup</title>
<path fill="none" stroke="#999999" d="M167.584,-193.203C167.584,-200.779 167.584,-209.893 167.584,-218.541"/>
<polygon fill="#999999" stroke="#999999" points="164.084,-218.724 167.584,-228.724 171.084,-218.724 164.084,-218.724"/>
</g>
</g>
</svg>
